<svg width="25" height="26" viewBox="0 0 25 26" fill="none" xmlns="http://www.w3.org/2000/svg">
<g id="Iconly/Bold/Bag-2">
<g id="Bag-2">
<path id="Vector" d="M12.5128 0.786865C15.6956 0.786865 18.2752 3.30625 18.3137 6.4177H18.5832C22.1253 6.4177 25 9.25201 25 12.7288V19.6823C25 23.159 22.1253 25.9808 18.5832 25.9808H6.41684C2.87474 25.9808 0 23.159 0 19.6823V12.7288C0 9.25201 2.87474 6.4177 6.41684 6.4177H6.68634C6.71201 4.90607 7.3152 3.49521 8.40606 2.43707C9.50975 1.36632 10.9215 0.824656 12.5128 0.786865ZM17.3768 7.91674C16.8506 7.91674 16.4143 8.34503 16.4143 8.86151V10.3228C16.4143 10.8392 16.8506 11.2675 17.3768 11.2675C17.9158 11.2675 18.3393 10.8392 18.3393 10.3228V8.86151C18.3393 8.34503 17.9158 7.91674 17.3768 7.91674ZM7.5077 7.91674C6.98152 7.91674 6.54517 8.34503 6.54517 8.86151V10.3228C6.54517 10.8392 6.98152 11.2675 7.5077 11.2675C8.04671 11.2675 8.47023 10.8392 8.47023 10.3228V8.86151C8.47023 8.34503 8.04671 7.91674 7.5077 7.91674ZM12.5128 2.67641C11.5246 2.67641 10.4979 3.06691 9.75359 3.78494C9.03491 4.49037 8.63706 5.42254 8.6114 6.4177H16.3886C16.3501 4.3518 14.6304 2.67641 12.5128 2.67641Z" fill="#565859"/>
</g>
</g>
</svg>
