<svg width="500" height="108" viewBox="0 0 500 108" fill="none" xmlns="http://www.w3.org/2000/svg">
<path d="M7.99 70.1999H18.81V37.7999H33V29.6699H18.82V26.5099C18.82 17.6699 21.08 9.80991 29.83 9.55991C30.05 9.54991 30.25 9.52991 30.48 9.52991C30.71 9.52991 30.91 9.54991 31.13 9.55991C39.88 9.80991 42.14 17.6699 42.14 26.5099V29.6699H52.7V26.8799C52.7 18.6299 50.88 11.0999 45.9 6.3699C41.9 2.4899 36.56 0.909912 31.58 0.909912C31.2 0.909912 30.84 0.94991 30.47 0.96991C30.1 0.94991 29.74 0.909912 29.36 0.909912C24.38 0.909912 19.04 2.4899 15.04 6.3699C10.06 11.0999 8.24 18.6299 8.24 26.8799V29.6699H0V37.7999H7.99V70.1999Z" fill="url(#paint0_linear_465_2071)"/>
<path d="M52.7102 70.1998V37.7998H41.8802V70.1898H27.6902V78.3198H41.8802V81.4798C41.8802 90.3198 39.6202 98.1798 30.8702 98.4298C30.6502 98.4398 30.4502 98.4598 30.2202 98.4598C29.9902 98.4598 29.7902 98.4398 29.5702 98.4298C20.8202 98.1798 18.5602 90.3198 18.5602 81.4798V78.3298H7.99023V81.1198C7.99023 89.3698 9.81023 96.8998 14.7902 101.63C18.7902 105.51 24.1302 107.09 29.1102 107.09C29.4902 107.09 29.8502 107.05 30.2202 107.03C30.5902 107.05 30.9502 107.09 31.3302 107.09C36.3102 107.09 41.6502 105.51 45.6502 101.63C50.6302 96.8998 52.4502 89.3698 52.4502 81.1198V78.3298H60.7002V70.1998H52.7102Z" fill="url(#paint1_linear_465_2071)"/>
<path d="M108.04 12.51C102.47 12.51 98.7202 16.3 98.7202 21.95V24.81H93.7002V30.51H98.7202V57.49H105.05V30.51H112.07V24.81H105.05V21.95C105.05 19.8 106.37 18.4 108.41 18.4H112.08V13.37L111.7 13.19C110.81 12.78 109.34 12.51 108.04 12.51Z" fill="#988676"/>
<path d="M140.76 28.8799C138.08 26.0099 134.06 24.1699 130.25 24.1699C120.7 24.1699 114.29 30.9899 114.29 41.1399C114.29 51.2899 120.7 58.1099 130.25 58.1099C134.06 58.1099 138.08 56.2699 140.76 53.3999V57.4799H147.09V24.7999H140.76V28.8799ZM130.75 52.4099C124.69 52.4099 120.62 47.8799 120.62 41.1499C120.62 34.4099 124.69 29.8899 130.75 29.8899C136.83 29.8899 140.76 34.3099 140.76 41.1499C140.76 47.9899 136.83 52.4099 130.75 52.4099Z" fill="#988676"/>
<path d="M168.3 37.4899C162.53 36.0999 161.4 34.9699 161.4 33.4899C161.4 31.3299 163.81 29.8799 167.39 29.8799C170.75 29.8799 173.57 31.5899 174.42 34.1399L174.61 34.7099L180.48 33.2599L180.24 32.5799C178.45 27.5499 173.29 24.1799 167.39 24.1799C160.02 24.1799 155.06 28.0699 155.06 33.8699C155.06 38.8699 158.17 41.3299 166.93 43.2899C173.9 44.8799 175.26 46.2399 175.26 48.0499C175.26 50.6599 172.09 52.4099 167.39 52.4099C162.45 52.4099 159.19 49.9499 159.07 46.1399L159.05 45.4999H153.04L153.05 46.1699C153.18 53.3099 158.94 58.1099 167.38 58.1099C175.84 58.1099 181.52 53.9599 181.52 47.7899C181.54 42.1999 178.07 39.4999 168.3 37.4899Z" fill="#988676"/>
<path d="M202.98 24.1801C199.72 24.1801 196.251 25.6001 193.851 27.8101V13.1301H187.521V57.4801H193.851V38.2501C193.851 33.2401 197.171 29.8701 202.101 29.8701C207.041 29.8701 210.351 33.2401 210.351 38.2501V57.4801H216.68V37.3801C216.68 29.4801 211.181 24.1801 202.98 24.1801Z" fill="#988676"/>
<path d="M231.12 13.1401H224.79V21.3501H231.12V13.1401Z" fill="#988676"/>
<path d="M231.12 24.8H224.79V57.48H231.12V24.8Z" fill="#988676"/>
<path d="M254.12 24.1799C244.31 24.1799 237.72 30.9999 237.72 41.1499C237.72 51.2999 244.31 58.1199 254.12 58.1199C263.93 58.1199 270.52 51.2999 270.52 41.1499C270.53 30.9999 263.93 24.1799 254.12 24.1799ZM254.12 52.4099C248.1 52.4099 244.05 47.8799 244.05 41.1499C244.05 34.4099 248.1 29.8899 254.12 29.8899C260.14 29.8899 264.19 34.4199 264.19 41.1499C264.19 47.8799 260.14 52.4099 254.12 52.4099Z" fill="#988676"/>
<path d="M291.96 24.1799C288.7 24.1799 285.23 25.5999 282.83 27.8099V24.7999H276.5V57.4799H282.83V38.2499C282.83 33.2399 286.15 29.8699 291.08 29.8699C296.01 29.8699 299.33 33.2399 299.33 38.2499V57.4799H305.66V37.3799C305.67 29.4799 300.16 24.1799 291.96 24.1799Z" fill="#988676"/>
<path d="M341.151 12.51C335.581 12.51 331.831 16.3 331.831 21.95V24.81H326.811V30.51H331.831V57.49H338.161V30.51H345.181V24.81H338.161V21.95C338.161 19.8 339.481 18.4 341.521 18.4H345.191V13.37L344.811 13.19C343.931 12.78 342.451 12.51 341.151 12.51Z" fill="#988676"/>
<path d="M372.37 44.03C372.37 49.04 369.05 52.41 364.12 52.41C359.19 52.41 355.87 49.04 355.87 44.03V24.8H349.54V44.91C349.54 52.81 355.05 58.11 363.25 58.11C366.5 58.11 369.98 56.69 372.38 54.47V57.48H378.71V24.8H372.38V44.03H372.37Z" fill="#988676"/>
<path d="M400.54 37.4899C394.77 36.0999 393.64 34.9699 393.64 33.4899C393.64 31.3299 396.05 29.8799 399.63 29.8799C402.99 29.8799 405.81 31.5899 406.66 34.1399L406.85 34.7099L412.72 33.2599L412.48 32.5799C410.69 27.5499 405.53 24.1799 399.63 24.1799C392.26 24.1799 387.3 28.0699 387.3 33.8699C387.3 38.8699 390.41 41.3299 399.17 43.2899C406.14 44.8799 407.5 46.2399 407.5 48.0499C407.5 50.6599 404.33 52.4099 399.63 52.4099C394.69 52.4099 391.43 49.9499 391.31 46.1399L391.29 45.4999H385.28L385.29 46.1699C385.42 53.3099 391.18 58.1099 399.62 58.1099C408.08 58.1099 413.76 53.9599 413.76 47.7899C413.78 42.1999 410.31 39.4999 400.54 37.4899Z" fill="#988676"/>
<path d="M425.45 13.1401H419.12V21.3501H425.45V13.1401Z" fill="#988676"/>
<path d="M425.45 24.8H419.12V57.48H425.45V24.8Z" fill="#988676"/>
<path d="M448.461 24.1799C438.651 24.1799 432.061 30.9999 432.061 41.1499C432.061 51.2999 438.651 58.1199 448.461 58.1199C458.271 58.1199 464.861 51.2999 464.861 41.1499C464.861 30.9999 458.271 24.1799 448.461 24.1799ZM448.461 52.4099C442.441 52.4099 438.391 47.8799 438.391 41.1499C438.391 34.4099 442.441 29.8899 448.461 29.8899C454.481 29.8899 458.531 34.4199 458.531 41.1499C458.521 47.8799 454.481 52.4099 448.461 52.4099Z" fill="#988676"/>
<path d="M486.29 24.1799C483.03 24.1799 479.56 25.5999 477.16 27.8099V24.7999H470.83V57.4799H477.16V38.2499C477.16 33.2399 480.48 29.8699 485.41 29.8699C490.35 29.8699 493.66 33.2399 493.66 38.2499V57.4799H500V37.3799C500 29.4799 494.49 24.1799 486.29 24.1799Z" fill="#988676"/>
<path d="M105.9 78.4099H96.9202L96.7502 82.6299C96.5702 86.0499 96.2602 89.3899 94.6802 89.4899H93.7002V94.0099H95.3002V90.9999H106.27V94.0099H107.84V89.4899H105.89V78.4099H105.9ZM104.25 79.9399V89.4899H96.9302C97.9302 88.2199 98.1802 85.5099 98.2902 82.7199L98.4202 79.9399H104.25Z" fill="#D2AD95"/>
<path d="M114.76 88.2999V78.4099H113.11V90.9999H114.49L122.76 81.0999V90.9999H124.4V78.4099H123.02L114.76 88.2999Z" fill="#D2AD95"/>
<path d="M137.34 84.41C138.53 83.85 139.24 82.87 139.24 81.74C139.24 79.7 137.21 78.27 134.29 78.27C132.75 78.27 131.21 78.67 129.84 79.44L129.66 79.54L130.18 80.93L130.43 80.79C131.57 80.14 132.89 79.78 134.16 79.78C135.74 79.78 137.58 80.34 137.58 81.9C137.58 83.03 136.34 83.79 134.49 83.79H132.35V85.16H134.54C136.63 85.16 137.94 85.95 137.94 87.21C137.94 88.8 136.01 89.63 134.1 89.63C132.54 89.63 131.03 89.12 130.04 88.25L129.81 88.05L129.11 89.35L129.26 89.48C130.5 90.52 132.27 91.11 134.12 91.11C137.3 91.11 139.6 89.51 139.6 87.3C139.59 85.93 138.78 84.9 137.34 84.41Z" fill="#D2AD95"/>
<path d="M149.71 78.3198C147.81 78.3198 145.98 78.9698 144.71 80.0998L144.55 80.2398L145.41 81.4798L145.61 81.2898C146.64 80.3598 148.1 79.8198 149.62 79.8198C151.84 79.8198 152.97 80.8998 152.97 83.0298V83.7598H149.06C144.92 83.7598 144.3 86.0298 144.3 87.3898C144.3 89.6398 146.11 91.0898 148.9 91.0898C150.67 91.0898 152.1 90.4898 153.01 89.3898V90.9998H154.61V83.0798C154.61 80.0098 152.87 78.3198 149.71 78.3198ZM152.96 85.1498V87.1298C152.28 88.7798 150.93 89.6498 149.05 89.6498C147.07 89.6498 145.93 88.8098 145.93 87.3398C145.93 85.8898 146.99 85.1498 149.07 85.1498H152.96Z" fill="#D2AD95"/>
<path d="M166.75 77.0399C168.85 77.0399 170.24 75.83 170.28 73.95L170.29 73.7H168.92V73.9399C168.9 75.0299 168.03 75.7699 166.75 75.7699C165.46 75.7699 164.6 75.0499 164.56 73.9399L164.55 73.7099H163.21L163.22 73.9599C163.26 75.8299 164.65 77.0399 166.75 77.0399Z" fill="#D2AD95"/>
<path d="M162.79 88.2999V78.4099H161.15V90.9999H162.53L170.79 81.0999V90.9999H172.44V78.4099H171.06L162.79 88.2999Z" fill="#D2AD95"/>
<path d="M188.65 83.9299H180.92V78.4099H179.28V90.9999H180.92V85.4299H188.65V90.9999H190.29V78.4099H188.65V83.9299Z" fill="#D2AD95"/>
<path d="M201.94 78.3198C198.44 78.3198 195.9 81.0098 195.9 84.7098C195.9 88.4698 198.56 91.0998 202.38 91.0998C204.33 91.0998 206.06 90.3498 207.14 89.0398L207.27 88.8798L206.27 87.7498L206.09 87.9698C205.24 88.9998 203.94 89.5698 202.41 89.5698C199.69 89.5698 197.76 87.8398 197.54 85.2298H207.93V84.9898C207.93 84.9398 207.93 84.8798 207.94 84.8298C207.95 84.7698 207.95 84.7098 207.95 84.6598C207.96 80.9798 205.43 78.3198 201.94 78.3198ZM201.94 79.8198C204.29 79.8198 206.05 81.4598 206.31 83.8298H197.57C197.85 81.4598 199.62 79.8198 201.94 79.8198Z" fill="#D2AD95"/>
<path d="M219.91 78.3198C217.96 78.3198 216.26 79.1798 215.19 80.6498V78.4098H213.59V95.4898H215.23V88.8298C216.3 90.2798 217.96 91.0898 219.9 91.0898C223.51 91.0898 226.12 88.3998 226.12 84.6998C226.13 80.9998 223.52 78.3198 219.91 78.3198ZM219.84 79.8398C222.53 79.8398 224.49 81.8798 224.49 84.6998C224.49 87.5098 222.54 89.5598 219.84 89.5598C217.12 89.5598 215.21 87.5598 215.21 84.6998C215.21 81.8398 217.12 79.8398 219.84 79.8398Z" fill="#D2AD95"/>
<path d="M245 78.4099H243.36V90.9999H245V78.4099Z" fill="#D2AD95"/>
<path d="M236.77 82.8099L233.39 82.7699V78.4099H231.75V90.9899L236.51 91.0399C236.54 91.0399 236.56 91.0399 236.59 91.0399C238.35 91.0399 239.68 90.6099 240.54 89.7499C241.26 89.0399 241.62 88.0699 241.62 86.8499C241.62 84.2699 239.9 82.8399 236.77 82.8099ZM233.39 84.1599L236.46 84.1799C238.89 84.2199 239.98 85.0499 239.98 86.8599C239.98 87.6899 239.74 88.3499 239.28 88.8099C238.72 89.3599 237.82 89.6399 236.62 89.6399C236.57 89.6399 236.52 89.6399 236.47 89.6399L233.39 89.5999V84.1599Z" fill="#D2AD95"/>
<path d="M261.751 88.2999V78.4099H260.101V90.9999H261.481L269.751 81.0999V90.9999H271.391V78.4099H270.021L261.751 88.2999Z" fill="#D2AD95"/>
<path d="M283.99 79.9399H288.71V90.9999H290.36V79.9399H295.09V78.4099H283.99V79.9399Z" fill="#D2AD95"/>
<path d="M305.74 78.3198C303.79 78.3198 302.09 79.1798 301.02 80.6498V78.4098H299.42V95.4898H301.06V88.8298C302.13 90.2798 303.79 91.0898 305.73 91.0898C309.34 91.0898 311.95 88.3998 311.95 84.6998C311.97 80.9998 309.35 78.3198 305.74 78.3198ZM305.68 79.8398C308.37 79.8398 310.33 81.8798 310.33 84.6998C310.33 87.5098 308.38 89.5598 305.68 89.5598C302.96 89.5598 301.05 87.5598 301.05 84.6998C301.05 81.8398 302.95 79.8398 305.68 79.8398Z" fill="#D2AD95"/>
<path d="M322.391 78.3198C318.891 78.3198 316.351 81.0098 316.351 84.7098C316.351 88.4698 319.011 91.0998 322.831 91.0998C324.781 91.0998 326.511 90.3498 327.591 89.0398L327.721 88.8798L326.721 87.7498L326.541 87.9698C325.691 88.9998 324.391 89.5698 322.861 89.5698C320.141 89.5698 318.211 87.8398 317.991 85.2298H328.381V84.9898C328.381 84.9398 328.381 84.8798 328.391 84.8298C328.401 84.7698 328.401 84.7098 328.401 84.6598C328.401 80.9798 325.871 78.3198 322.391 78.3198ZM322.391 79.8198C324.741 79.8198 326.501 81.4598 326.761 83.8298H318.021C318.301 81.4598 320.061 79.8198 322.391 79.8198Z" fill="#D2AD95"/>
<path d="M343.381 83.9299H335.661V78.4099H334.021V90.9999H335.661V85.4299H343.381V90.9999H345.031V78.4099H343.381V83.9299Z" fill="#D2AD95"/>
<path d="M361.79 78.4099H352.81L352.64 82.6299C352.46 86.0499 352.15 89.3899 350.57 89.4899H349.61V94.0099H351.21V90.9999H362.18V94.0099H363.75V89.4899H361.8V78.4099H361.79ZM360.15 79.9399V89.4899H352.83C353.83 88.2199 354.08 85.5099 354.19 82.7199L354.32 79.9399H360.15Z" fill="#D2AD95"/>
<path d="M382.26 78.4099H380.62V90.9999H382.26V78.4099Z" fill="#D2AD95"/>
<path d="M374.02 82.8099L370.64 82.7699V78.4099H369V90.9899L373.76 91.0399C373.79 91.0399 373.81 91.0399 373.84 91.0399C375.6 91.0399 376.93 90.6099 377.79 89.7499C378.51 89.0399 378.87 88.0699 378.87 86.8499C378.88 84.2699 377.15 82.8399 374.02 82.8099ZM370.65 84.1599L373.72 84.1799C376.15 84.2199 377.24 85.0499 377.24 86.8599C377.24 87.6899 377 88.3499 376.54 88.8099C375.98 89.3599 375.08 89.6399 373.88 89.6399C373.83 89.6399 373.78 89.6399 373.73 89.6399L370.65 89.5999V84.1599Z" fill="#D2AD95"/>
<defs>
<linearGradient id="paint0_linear_465_2071" x1="4.4473" y1="106.601" x2="34.4916" y2="1.09631" gradientUnits="userSpaceOnUse">
<stop stop-color="#988676"/>
<stop offset="1" stop-color="#D2AD95"/>
</linearGradient>
<linearGradient id="paint1_linear_465_2071" x1="25.196" y1="110.452" x2="54.9748" y2="5.8802" gradientUnits="userSpaceOnUse">
<stop stop-color="#988676"/>
<stop offset="1" stop-color="#D2AD95"/>
</linearGradient>
</defs>
</svg>
