<svg width="24" height="24" viewBox="0 0 24 24" fill="none" xmlns="http://www.w3.org/2000/svg">
<path d="M7.11566 0.28125C3.34738 0.28125 0.28125 3.34919 0.28125 7.11841V16.8834C0.28125 20.6522 3.34919 23.7188 7.11841 23.7188H16.8834C20.6522 23.7188 23.7188 20.6508 23.7188 16.8816V7.11566C23.7188 3.34738 20.6508 0.28125 16.8816 0.28125H7.11566ZM19.0312 4.03125C19.5487 4.03125 19.9688 4.45125 19.9688 4.96875C19.9688 5.48625 19.5487 5.90625 19.0312 5.90625C18.5138 5.90625 18.0938 5.48625 18.0938 4.96875C18.0938 4.45125 18.5138 4.03125 19.0312 4.03125ZM12 5.90625C15.3609 5.90625 18.0938 8.63906 18.0938 12C18.0938 15.3609 15.3605 18.0938 12 18.0938C8.63906 18.0938 5.90625 15.3605 5.90625 12C5.90625 8.63953 8.63906 5.90625 12 5.90625ZM12 7.78125C9.66984 7.78125 7.78125 9.66984 7.78125 12C7.78125 14.3302 9.66984 16.2188 12 16.2188C14.3302 16.2188 16.2188 14.3302 16.2188 12C16.2188 9.66984 14.3302 7.78125 12 7.78125Z" fill="#565859"/>
</svg>
