<svg width="200" height="41" viewBox="0 0 200 41" fill="none" xmlns="http://www.w3.org/2000/svg">
<g id="Group">
<g id="Group_2">
<g id="Group_3">
<path id="Vector" d="M43.2165 4.44214C40.9885 4.44214 39.4885 5.89351 39.4885 8.05716V9.15239H37.4805V11.3352H39.4885V21.6671H42.0205V11.3352H44.8285V9.15239H42.0205V8.05716C42.0205 7.23383 42.5485 6.6977 43.3645 6.6977H44.8325V4.77147L44.6805 4.70255C44.3245 4.54554 43.7365 4.44214 43.2165 4.44214Z" fill="#58585A"/>
<path id="Vector_2" d="M56.3048 10.7112C55.2328 9.6121 53.6248 8.90747 52.1008 8.90747C48.2808 8.90747 45.7168 11.5192 45.7168 15.4061C45.7168 19.293 48.2808 21.9047 52.1008 21.9047C53.6248 21.9047 55.2328 21.2001 56.3048 20.101V21.6634H58.8368V9.14873H56.3048V10.7112ZM52.3008 19.7219C49.8768 19.7219 48.2488 17.9871 48.2488 15.4099C48.2488 12.8288 49.8768 11.0979 52.3008 11.0979C54.7328 11.0979 56.3048 12.7906 56.3048 15.4099C56.3048 18.0293 54.7328 19.7219 52.3008 19.7219Z" fill="#58585A"/>
<path id="Vector_3" d="M67.3208 14.0082C65.0128 13.4759 64.5608 13.0431 64.5608 12.4764C64.5608 11.6492 65.5248 11.0939 66.9568 11.0939C68.3008 11.0939 69.4288 11.7488 69.7688 12.7253L69.8448 12.9436L72.1928 12.3883L72.0968 12.1279C71.3808 10.2017 69.3168 8.91113 66.9568 8.91113C64.0088 8.91113 62.0248 10.4008 62.0248 12.6219C62.0248 14.5366 63.2688 15.4787 66.7728 16.2293C69.5608 16.8381 70.1048 17.359 70.1048 18.0521C70.1048 19.0516 68.8368 19.7217 66.9568 19.7217C64.9808 19.7217 63.6768 18.7797 63.6288 17.3207L63.6208 17.0756H61.2168L61.2208 17.3321C61.2728 20.0664 63.5768 21.9045 66.9528 21.9045C70.3368 21.9045 72.6088 20.3153 72.6088 17.9525C72.6168 15.8118 71.2288 14.7779 67.3208 14.0082Z" fill="#58585A"/>
<path id="Vector_4" d="M81.1918 8.91149C79.8878 8.91149 78.4998 9.45528 77.5398 10.3016V4.67993H75.0078V21.6636H77.5398V14.2996C77.5398 12.381 78.8678 11.0905 80.8398 11.0905C82.8158 11.0905 84.1398 12.381 84.1398 14.2996V21.6636H86.6718V13.9664C86.6718 10.9411 84.4718 8.91149 81.1918 8.91149Z" fill="#58585A"/>
<path id="Vector_5" d="M92.448 4.68359H89.916V7.82759H92.448V4.68359Z" fill="#58585A"/>
<path id="Vector_6" d="M92.448 9.14868H89.916V21.6634H92.448V9.14868Z" fill="#58585A"/>
<path id="Vector_7" d="M101.648 8.91113C97.7239 8.91113 95.0879 11.5228 95.0879 15.4097C95.0879 19.2967 97.7239 21.9084 101.648 21.9084C105.572 21.9084 108.208 19.2967 108.208 15.4097C108.212 11.5228 105.572 8.91113 101.648 8.91113ZM101.648 19.7217C99.2399 19.7217 97.6199 17.987 97.6199 15.4097C97.6199 12.8287 99.2399 11.0978 101.648 11.0978C104.056 11.0978 105.676 12.8325 105.676 15.4097C105.676 17.987 104.056 19.7217 101.648 19.7217Z" fill="#58585A"/>
<path id="Vector_8" d="M116.784 8.91113C115.48 8.91113 114.092 9.45492 113.132 10.3012V9.14856H110.6V21.6633H113.132V14.2992C113.132 12.3806 114.46 11.0901 116.432 11.0901C118.404 11.0901 119.732 12.3806 119.732 14.2992V21.6633H122.264V13.966C122.268 10.9408 120.064 8.91113 116.784 8.91113Z" fill="#58585A"/>
<path id="Vector_9" d="M136.461 4.44214C134.233 4.44214 132.733 5.89351 132.733 8.05716V9.15239H130.725V11.3352H132.733V21.6671H135.265V11.3352H138.073V9.15239H135.265V8.05716C135.265 7.23383 135.793 6.6977 136.609 6.6977H138.077V4.77147L137.925 4.70255C137.573 4.54554 136.981 4.44214 136.461 4.44214Z" fill="#58585A"/>
<path id="Vector_10" d="M148.948 16.5128C148.948 18.4313 147.62 19.7219 145.648 19.7219C143.676 19.7219 142.348 18.4313 142.348 16.5128V9.14868H139.816V16.8498C139.816 19.875 142.02 21.9047 145.3 21.9047C146.6 21.9047 147.992 21.3609 148.952 20.5107V21.6634H151.484V9.14868H148.952V16.5128H148.948Z" fill="#58585A"/>
<path id="Vector_11" d="M160.217 14.0082C157.909 13.4759 157.457 13.0431 157.457 12.4764C157.457 11.6492 158.421 11.0939 159.853 11.0939C161.197 11.0939 162.325 11.7488 162.665 12.7253L162.741 12.9436L165.089 12.3883L164.993 12.1279C164.277 10.2017 162.213 8.91113 159.853 8.91113C156.905 8.91113 154.921 10.4008 154.921 12.6219C154.921 14.5366 156.165 15.4787 159.669 16.2293C162.457 16.8381 163.001 17.359 163.001 18.0521C163.001 19.0516 161.733 19.7217 159.853 19.7217C157.877 19.7217 156.573 18.7797 156.525 17.3207L156.517 17.0756H154.113L154.117 17.3321C154.169 20.0664 156.473 21.9045 159.849 21.9045C163.233 21.9045 165.505 20.3153 165.505 17.9525C165.513 15.8118 164.125 14.7779 160.217 14.0082Z" fill="#58585A"/>
<path id="Vector_12" d="M170.18 4.68359H167.648V7.82759H170.18V4.68359Z" fill="#58585A"/>
<path id="Vector_13" d="M170.18 9.14868H167.648V21.6634H170.18V9.14868Z" fill="#58585A"/>
<path id="Vector_14" d="M179.384 8.91113C175.46 8.91113 172.824 11.5228 172.824 15.4097C172.824 19.2967 175.46 21.9084 179.384 21.9084C183.308 21.9084 185.944 19.2967 185.944 15.4097C185.944 11.5228 183.308 8.91113 179.384 8.91113ZM179.384 19.7217C176.976 19.7217 175.356 17.987 175.356 15.4097C175.356 12.8287 176.976 11.0978 179.384 11.0978C181.792 11.0978 183.412 12.8325 183.412 15.4097C183.408 17.987 181.792 19.7217 179.384 19.7217Z" fill="#58585A"/>
<path id="Vector_15" d="M194.516 8.91113C193.212 8.91113 191.824 9.45492 190.864 10.3012V9.14856H188.332V21.6633H190.864V14.2992C190.864 12.3806 192.192 11.0901 194.164 11.0901C196.14 11.0901 197.464 12.3806 197.464 14.2992V21.6633H200V13.966C200 10.9408 197.796 8.91113 194.516 8.91113Z" fill="#58585A"/>
</g>
<g id="Group_4">
<path id="Vector_16" d="M42.3605 29.6785H38.7685L38.7005 31.2945C38.6285 32.6042 38.5045 33.8832 37.8725 33.9215H37.4805V35.6524H38.1205V34.4998H42.5085V35.6524H43.1365V33.9215H42.3565V29.6785H42.3605ZM41.7005 30.2644V33.9215H38.7725C39.1725 33.4352 39.2725 32.3974 39.3165 31.329L39.3685 30.2644H41.7005Z" fill="#58585A"/>
<path id="Vector_17" d="M45.9041 33.4658V29.6785H45.2441V34.4998H45.7961L49.1041 30.7086V34.4998H49.7601V29.6785H49.2081L45.9041 33.4658Z" fill="#58585A"/>
<path id="Vector_18" d="M54.9365 31.9761C55.4125 31.7616 55.6965 31.3863 55.6965 30.9536C55.6965 30.1724 54.8845 29.6248 53.7165 29.6248C53.1005 29.6248 52.4845 29.7779 51.9365 30.0728L51.8645 30.1111L52.0725 30.6434L52.1725 30.5898C52.6285 30.3409 53.1565 30.203 53.6645 30.203C54.2965 30.203 55.0325 30.4175 55.0325 31.0149C55.0325 31.4476 54.5365 31.7386 53.7965 31.7386H52.9405V32.2633H53.8165C54.6525 32.2633 55.1765 32.5658 55.1765 33.0483C55.1765 33.6572 54.4045 33.975 53.6405 33.975C53.0165 33.975 52.4125 33.7797 52.0165 33.4466L51.9245 33.37L51.6445 33.8678L51.7045 33.9176C52.2005 34.3159 52.9085 34.5418 53.6485 34.5418C54.9205 34.5418 55.8405 33.9291 55.8405 33.0828C55.8365 32.5581 55.5125 32.1637 54.9365 31.9761Z" fill="#58585A"/>
<path id="Vector_19" d="M59.8847 29.6438C59.1247 29.6438 58.3927 29.8927 57.8847 30.3254L57.8207 30.3791L58.1647 30.8539L58.2447 30.7812C58.6567 30.425 59.2407 30.2182 59.8487 30.2182C60.7367 30.2182 61.1887 30.6318 61.1887 31.4475V31.727H59.6247C57.9687 31.727 57.7207 32.5963 57.7207 33.1171C57.7207 33.9788 58.4447 34.534 59.5607 34.534C60.2687 34.534 60.8407 34.3043 61.2047 33.883V34.4996H61.8447V31.4666C61.8447 30.291 61.1487 29.6438 59.8847 29.6438ZM61.1847 32.2593V33.0176C60.9127 33.6494 60.3727 33.9826 59.6207 33.9826C58.8287 33.9826 58.3727 33.6609 58.3727 33.098C58.3727 32.5427 58.7967 32.2593 59.6287 32.2593H61.1847Z" fill="#58585A"/>
<path id="Vector_20" d="M66.7012 29.1538C67.5412 29.1538 68.0972 28.6904 68.1132 27.9705L68.1172 27.8748H67.5692V27.9667C67.5612 28.3841 67.2132 28.6674 66.7012 28.6674C66.1852 28.6674 65.8412 28.3917 65.8252 27.9667L65.8212 27.8786H65.2852L65.2892 27.9743C65.3052 28.6904 65.8612 29.1538 66.7012 29.1538Z" fill="#58585A"/>
<path id="Vector_21" d="M65.1169 33.4658V29.6785H64.4609V34.4998H65.0129L68.3169 30.7086V34.4998H68.9769V29.6785H68.4249L65.1169 33.4658Z" fill="#58585A"/>
<path id="Vector_22" d="M75.4609 31.7923H72.3689V29.6785H71.7129V34.4998H72.3689V32.3668H75.4609V34.4998H76.1169V29.6785H75.4609V31.7923Z" fill="#58585A"/>
<path id="Vector_23" d="M80.7773 29.6438C79.3773 29.6438 78.3613 30.6739 78.3613 32.0908C78.3613 33.5307 79.4253 34.5379 80.9533 34.5379C81.7333 34.5379 82.4253 34.2507 82.8573 33.749L82.9093 33.6877L82.5093 33.255L82.4373 33.3392C82.0973 33.7337 81.5773 33.952 80.9653 33.952C79.8773 33.952 79.1053 33.2895 79.0173 32.29H83.1733V32.1981C83.1733 32.1789 83.1733 32.1559 83.1773 32.1368C83.1813 32.1138 83.1813 32.0908 83.1813 32.0717C83.1853 30.6624 82.1733 29.6438 80.7773 29.6438ZM80.7773 30.2182C81.7173 30.2182 82.4213 30.8462 82.5253 31.7538H79.0293C79.1413 30.8462 79.8493 30.2182 80.7773 30.2182Z" fill="#58585A"/>
<path id="Vector_24" d="M87.9635 29.6438C87.1835 29.6438 86.5035 29.9731 86.0755 30.5361V29.6783H85.4355V36.219H86.0915V33.6686C86.5195 34.2238 87.1835 34.534 87.9595 34.534C89.4035 34.534 90.4475 33.5039 90.4475 32.087C90.4515 30.6701 89.4075 29.6438 87.9635 29.6438ZM87.9355 30.2259C89.0115 30.2259 89.7956 31.0071 89.7956 32.087C89.7956 33.1631 89.0155 33.9481 87.9355 33.9481C86.8475 33.9481 86.0836 33.1822 86.0836 32.087C86.0836 30.9918 86.8475 30.2259 87.9355 30.2259Z" fill="#58585A"/>
<path id="Vector_25" d="M97.9997 29.6785H97.3438V34.4998H97.9997V29.6785Z" fill="#58585A"/>
<path id="Vector_26" d="M94.7092 31.3634L93.3572 31.3481V29.6785H92.7012V34.4959L94.6052 34.5151C94.6172 34.5151 94.6252 34.5151 94.6372 34.5151C95.3412 34.5151 95.8732 34.3504 96.2172 34.0211C96.5052 33.7492 96.6492 33.3777 96.6492 32.9105C96.6492 31.9225 95.9612 31.3749 94.7092 31.3634ZM93.3572 31.8804L94.5852 31.8881C95.5572 31.9034 95.9932 32.2212 95.9932 32.9144C95.9932 33.2322 95.8972 33.485 95.7132 33.6611C95.4892 33.8717 95.1292 33.979 94.6492 33.979C94.6292 33.979 94.6092 33.979 94.5892 33.979L93.3572 33.9636V31.8804Z" fill="#58585A"/>
<path id="Vector_27" d="M104.701 33.4658V29.6785H104.041V34.4998H104.593L107.901 30.7086V34.4998H108.557V29.6785H108.009L104.701 33.4658Z" fill="#58585A"/>
<path id="Vector_28" d="M113.596 30.2644H115.484V34.4998H116.144V30.2644H118.036V29.6785H113.596V30.2644Z" fill="#58585A"/>
<path id="Vector_29" d="M122.296 29.6438C121.516 29.6438 120.836 29.9731 120.408 30.5361V29.6783H119.768V36.219H120.424V33.6686C120.852 34.2238 121.516 34.534 122.292 34.534C123.736 34.534 124.78 33.5039 124.78 32.087C124.788 30.6701 123.74 29.6438 122.296 29.6438ZM122.272 30.2259C123.348 30.2259 124.132 31.0071 124.132 32.087C124.132 33.1631 123.352 33.9481 122.272 33.9481C121.184 33.9481 120.42 33.1822 120.42 32.087C120.42 30.9918 121.18 30.2259 122.272 30.2259Z" fill="#58585A"/>
<path id="Vector_30" d="M128.957 29.6438C127.557 29.6438 126.541 30.6739 126.541 32.0908C126.541 33.5307 127.605 34.5379 129.133 34.5379C129.913 34.5379 130.605 34.2507 131.037 33.749L131.089 33.6877L130.689 33.255L130.617 33.3392C130.277 33.7337 129.757 33.952 129.145 33.952C128.057 33.952 127.285 33.2895 127.197 32.29H131.353V32.1981C131.353 32.1789 131.353 32.1559 131.357 32.1368C131.361 32.1138 131.361 32.0908 131.361 32.0717C131.361 30.6624 130.349 29.6438 128.957 29.6438ZM128.957 30.2182C129.897 30.2182 130.601 30.8462 130.705 31.7538H127.209C127.321 30.8462 128.025 30.2182 128.957 30.2182Z" fill="#58585A"/>
<path id="Vector_31" d="M137.353 31.7923H134.265V29.6785H133.609V34.4998H134.265V32.3668H137.353V34.4998H138.013V29.6785H137.353V31.7923Z" fill="#58585A"/>
<path id="Vector_32" d="M144.716 29.6785H141.124L141.056 31.2945C140.984 32.6042 140.86 33.8832 140.228 33.9215H139.844V35.6524H140.484V34.4998H144.872V35.6524H145.5V33.9215H144.72V29.6785H144.716ZM144.06 30.2644V33.9215H141.132C141.532 33.4352 141.632 32.3974 141.676 31.329L141.728 30.2644H144.06Z" fill="#58585A"/>
<path id="Vector_33" d="M152.904 29.6785H152.248V34.4998H152.904V29.6785Z" fill="#58585A"/>
<path id="Vector_34" d="M149.608 31.3634L148.256 31.3481V29.6785H147.6V34.4959L149.504 34.5151C149.516 34.5151 149.524 34.5151 149.536 34.5151C150.24 34.5151 150.772 34.3504 151.116 34.0211C151.404 33.7492 151.548 33.3777 151.548 32.9105C151.552 31.9225 150.86 31.3749 149.608 31.3634ZM148.26 31.8804L149.488 31.8881C150.46 31.9034 150.896 32.2212 150.896 32.9144C150.896 33.2322 150.8 33.485 150.616 33.6611C150.392 33.8717 150.032 33.979 149.552 33.979C149.532 33.979 149.512 33.979 149.492 33.979L148.26 33.9636V31.8804Z" fill="#58585A"/>
</g>
</g>
<g id="Group_5">
<path id="Vector_35" d="M3.196 26.5344H7.524V14.1269H13.2V11.0136H7.528V9.80345C7.528 6.41819 8.432 3.40823 11.932 3.31249C12.02 3.30866 12.1 3.301 12.192 3.301C12.284 3.301 12.364 3.30866 12.452 3.31249C15.952 3.40823 16.856 6.41819 16.856 9.80345V11.0136H21.08V9.94514C21.08 6.78583 20.352 3.90223 18.36 2.09089C16.76 0.605053 14.624 0 12.632 0C12.48 0 12.336 0.015317 12.188 0.0229759C12.04 0.015317 11.896 0 11.744 0C9.752 0 7.616 0.605053 6.016 2.09089C4.024 3.90223 3.296 6.78583 3.296 9.94514V11.0136H0V14.1269H3.196V26.5344Z" fill="#58585A"/>
<path id="Vector_36" d="M21.0833 26.5342V14.1267H16.7513V26.5304H11.0753V29.6437H16.7513V30.8538C16.7513 34.2391 15.8473 37.2491 12.3473 37.3448C12.2593 37.3486 12.1793 37.3563 12.0873 37.3563C11.9953 37.3563 11.9153 37.3486 11.8273 37.3448C8.32731 37.2491 7.42331 34.2391 7.42331 30.8538V29.6476H3.19531V30.716C3.19531 33.8753 3.92331 36.7589 5.91531 38.5702C7.51531 40.0561 9.65131 40.6611 11.6433 40.6611C11.7953 40.6611 11.9393 40.6458 12.0873 40.6381C12.2353 40.6458 12.3793 40.6611 12.5313 40.6611C14.5233 40.6611 16.6593 40.0561 18.2593 38.5702C20.2513 36.7589 20.9793 33.8753 20.9793 30.716V29.6476H24.2793V26.5342H21.0833Z" fill="#58585A"/>
</g>
</g>
</svg>
