<svg width="300" height="64" viewBox="0 0 300 64" fill="none" xmlns="http://www.w3.org/2000/svg">
<path d="M4.794 41.72H11.286V22.28H19.8V17.402H11.292V15.506C11.292 10.202 12.648 5.48599 17.898 5.33599C18.03 5.32999 18.15 5.31799 18.288 5.31799C18.426 5.31799 18.546 5.32999 18.678 5.33599C23.928 5.48599 25.284 10.202 25.284 15.506V17.402H31.62V15.728C31.62 10.778 30.528 6.25999 27.54 3.42199C25.14 1.09399 21.936 0.145996 18.948 0.145996C18.72 0.145996 18.504 0.169995 18.282 0.181995C18.06 0.169995 17.844 0.145996 17.616 0.145996C14.628 0.145996 11.424 1.09399 9.024 3.42199C6.036 6.25999 4.944 10.778 4.944 15.728V17.402H0V22.28H4.794V41.72Z" fill="url(#paint0_linear_405_156)"/>
<path d="M31.626 41.72V22.28H25.128V41.714H16.614V46.592H25.128V48.488C25.128 53.792 23.772 58.508 18.522 58.658C18.39 58.664 18.27 58.676 18.132 58.676C17.994 58.676 17.874 58.664 17.742 58.658C12.492 58.508 11.136 53.792 11.136 48.488V46.598H4.79401V48.272C4.79401 53.222 5.88601 57.74 8.87401 60.578C11.274 62.906 14.478 63.854 17.466 63.854C17.694 63.854 17.91 63.83 18.132 63.818C18.354 63.83 18.57 63.854 18.798 63.854C21.786 63.854 24.99 62.906 27.39 60.578C30.378 57.74 31.47 53.222 31.47 48.272V46.598H36.42V41.72H31.626Z" fill="url(#paint1_linear_405_156)"/>
<path d="M64.824 7.10596C61.482 7.10596 59.232 9.37996 59.232 12.77V14.486H56.22V17.906H59.232V34.094H63.03V17.906H67.242V14.486H63.03V12.77C63.03 11.48 63.822 10.64 65.046 10.64H67.248V7.62196L67.02 7.51396C66.486 7.26796 65.604 7.10596 64.824 7.10596Z" fill="#988676"/>
<path d="M84.456 16.9279C82.848 15.2059 80.436 14.1019 78.15 14.1019C72.42 14.1019 68.574 18.1939 68.574 24.2839C68.574 30.3739 72.42 34.4659 78.15 34.4659C80.436 34.4659 82.848 33.3619 84.456 31.6399V34.0879H88.254V14.4799H84.456V16.9279ZM78.45 31.0459C74.814 31.0459 72.372 28.3279 72.372 24.2899C72.372 20.2459 74.814 17.5339 78.45 17.5339C82.098 17.5339 84.456 20.1859 84.456 24.2899C84.456 28.3939 82.098 31.0459 78.45 31.0459Z" fill="#988676"/>
<path d="M100.98 22.0939C97.518 21.2599 96.84 20.5819 96.84 19.6939C96.84 18.3979 98.286 17.5279 100.434 17.5279C102.45 17.5279 104.142 18.5539 104.652 20.0839L104.766 20.4259L108.288 19.5559L108.144 19.1479C107.07 16.1299 103.974 14.1079 100.434 14.1079C96.012 14.1079 93.036 16.4419 93.036 19.9219C93.036 22.9219 94.902 24.3979 100.158 25.5739C104.34 26.5279 105.156 27.3439 105.156 28.4299C105.156 29.9959 103.254 31.0459 100.434 31.0459C97.47 31.0459 95.514 29.5699 95.442 27.2839L95.43 26.8999H91.824L91.83 27.3019C91.908 31.5859 95.364 34.4659 100.428 34.4659C105.504 34.4659 108.912 31.9759 108.912 28.2739C108.924 24.9199 106.842 23.2999 100.98 22.0939Z" fill="#988676"/>
<path d="M121.788 14.1079C119.832 14.1079 117.75 14.9599 116.31 16.2859V7.47791H112.512V34.0879H116.31V22.5499C116.31 19.5439 118.302 17.5219 121.26 17.5219C124.224 17.5219 126.21 19.5439 126.21 22.5499V34.0879H130.008V22.0279C130.008 17.2879 126.708 14.1079 121.788 14.1079Z" fill="#988676"/>
<path d="M138.672 7.48401H134.874V12.41H138.672V7.48401Z" fill="#988676"/>
<path d="M138.672 14.48H134.874V34.088H138.672V14.48Z" fill="#988676"/>
<path d="M152.472 14.1079C146.586 14.1079 142.632 18.1999 142.632 24.2899C142.632 30.3799 146.586 34.4719 152.472 34.4719C158.358 34.4719 162.312 30.3799 162.312 24.2899C162.318 18.1999 158.358 14.1079 152.472 14.1079ZM152.472 31.0459C148.86 31.0459 146.43 28.3279 146.43 24.2899C146.43 20.2459 148.86 17.5339 152.472 17.5339C156.084 17.5339 158.514 20.2519 158.514 24.2899C158.514 28.3279 156.084 31.0459 152.472 31.0459Z" fill="#988676"/>
<path d="M175.176 14.1079C173.22 14.1079 171.138 14.9599 169.698 16.2859V14.4799H165.9V34.0879H169.698V22.5499C169.698 19.5439 171.69 17.5219 174.648 17.5219C177.606 17.5219 179.598 19.5439 179.598 22.5499V34.0879H183.396V22.0279C183.402 17.2879 180.096 14.1079 175.176 14.1079Z" fill="#988676"/>
<path d="M204.69 7.10596C201.348 7.10596 199.098 9.37996 199.098 12.77V14.486H196.086V17.906H199.098V34.094H202.896V17.906H207.108V14.486H202.896V12.77C202.896 11.48 203.688 10.64 204.912 10.64H207.114V7.62196L206.886 7.51396C206.358 7.26796 205.47 7.10596 204.69 7.10596Z" fill="#988676"/>
<path d="M223.422 26.018C223.422 29.024 221.43 31.046 218.472 31.046C215.514 31.046 213.522 29.024 213.522 26.018V14.48H209.724V26.546C209.724 31.286 213.03 34.466 217.95 34.466C219.9 34.466 221.988 33.614 223.428 32.282V34.088H227.226V14.48H223.428V26.018H223.422Z" fill="#988676"/>
<path d="M240.324 22.0939C236.862 21.2599 236.184 20.5819 236.184 19.6939C236.184 18.3979 237.63 17.5279 239.778 17.5279C241.794 17.5279 243.486 18.5539 243.996 20.0839L244.11 20.4259L247.632 19.5559L247.488 19.1479C246.414 16.1299 243.318 14.1079 239.778 14.1079C235.356 14.1079 232.38 16.4419 232.38 19.9219C232.38 22.9219 234.246 24.3979 239.502 25.5739C243.684 26.5279 244.5 27.3439 244.5 28.4299C244.5 29.9959 242.598 31.0459 239.778 31.0459C236.814 31.0459 234.858 29.5699 234.786 27.2839L234.774 26.8999H231.168L231.174 27.3019C231.252 31.5859 234.708 34.4659 239.772 34.4659C244.848 34.4659 248.256 31.9759 248.256 28.2739C248.268 24.9199 246.186 23.2999 240.324 22.0939Z" fill="#988676"/>
<path d="M255.27 7.48401H251.472V12.41H255.27V7.48401Z" fill="#988676"/>
<path d="M255.27 14.48H251.472V34.088H255.27V14.48Z" fill="#988676"/>
<path d="M269.076 14.1079C263.19 14.1079 259.236 18.1999 259.236 24.2899C259.236 30.3799 263.19 34.4719 269.076 34.4719C274.962 34.4719 278.916 30.3799 278.916 24.2899C278.916 18.1999 274.962 14.1079 269.076 14.1079ZM269.076 31.0459C265.464 31.0459 263.034 28.3279 263.034 24.2899C263.034 20.2459 265.464 17.5339 269.076 17.5339C272.688 17.5339 275.118 20.2519 275.118 24.2899C275.112 28.3279 272.688 31.0459 269.076 31.0459Z" fill="#988676"/>
<path d="M291.774 14.1079C289.818 14.1079 287.736 14.9599 286.296 16.2859V14.4799H282.498V34.0879H286.296V22.5499C286.296 19.5439 288.288 17.5219 291.246 17.5219C294.21 17.5219 296.196 19.5439 296.196 22.5499V34.0879H300V22.0279C300 17.2879 296.694 14.1079 291.774 14.1079Z" fill="#988676"/>
<path d="M63.54 46.646H58.152L58.05 49.178C57.942 51.23 57.756 53.234 56.808 53.294H56.22V56.006H57.18V54.2H63.762V56.006H64.704V53.294H63.534V46.646H63.54ZM62.55 47.564V53.294H58.158C58.758 52.532 58.908 50.906 58.974 49.232L59.052 47.564H62.55Z" fill="#D2AD95"/>
<path d="M68.856 52.58V46.646H67.866V54.2H68.694L73.656 48.26V54.2H74.64V46.646H73.812L68.856 52.58Z" fill="#D2AD95"/>
<path d="M82.4039 50.2459C83.1179 49.9099 83.5439 49.3219 83.5439 48.6439C83.5439 47.4199 82.3259 46.5619 80.5739 46.5619C79.6499 46.5619 78.7259 46.8019 77.9039 47.2639L77.7959 47.3239L78.1079 48.1579L78.2579 48.0739C78.9419 47.6839 79.7339 47.4679 80.4959 47.4679C81.4439 47.4679 82.5479 47.8039 82.5479 48.7399C82.5479 49.4179 81.8039 49.8739 80.6939 49.8739H79.4099V50.6959H80.7239C81.9779 50.6959 82.7639 51.1699 82.7639 51.9259C82.7639 52.8799 81.6059 53.3779 80.4599 53.3779C79.5239 53.3779 78.6179 53.0719 78.0239 52.5499L77.8859 52.4299L77.4659 53.2099L77.5559 53.2879C78.2999 53.9119 79.3619 54.2659 80.4719 54.2659C82.3799 54.2659 83.7599 53.3059 83.7599 51.9799C83.7539 51.1579 83.2679 50.5399 82.4039 50.2459Z" fill="#D2AD95"/>
<path d="M89.826 46.5919C88.686 46.5919 87.588 46.9819 86.826 47.6599L86.73 47.7439L87.246 48.4879L87.366 48.3739C87.984 47.8159 88.86 47.4919 89.772 47.4919C91.104 47.4919 91.782 48.1399 91.782 49.4179V49.8559H89.436C86.952 49.8559 86.58 51.2179 86.58 52.0339C86.58 53.3839 87.666 54.2539 89.34 54.2539C90.402 54.2539 91.26 53.8939 91.806 53.2339V54.1999H92.766V49.4479C92.766 47.6059 91.722 46.5919 89.826 46.5919ZM91.776 50.6899V51.8779C91.368 52.8679 90.558 53.3899 89.43 53.3899C88.242 53.3899 87.5579 52.8859 87.5579 52.0039C87.5579 51.1339 88.194 50.6899 89.442 50.6899H91.776Z" fill="#D2AD95"/>
<path d="M100.05 45.8239C101.31 45.8239 102.144 45.0979 102.168 43.9699L102.174 43.8199H101.352V43.9639C101.34 44.6179 100.818 45.0619 100.05 45.0619C99.276 45.0619 98.76 44.6299 98.736 43.9639L98.73 43.8259H97.926L97.932 43.9759C97.956 45.0979 98.79 45.8239 100.05 45.8239Z" fill="#D2AD95"/>
<path d="M97.6739 52.58V46.646H96.6899V54.2H97.5179L102.474 48.26V54.2H103.464V46.646H102.636L97.6739 52.58Z" fill="#D2AD95"/>
<path d="M113.19 49.958H108.552V46.646H107.568V54.2H108.552V50.858H113.19V54.2H114.174V46.646H113.19V49.958Z" fill="#D2AD95"/>
<path d="M121.164 46.5919C119.064 46.5919 117.54 48.2059 117.54 50.4259C117.54 52.6819 119.136 54.2599 121.428 54.2599C122.598 54.2599 123.636 53.8099 124.284 53.0239L124.362 52.9279L123.762 52.2499L123.654 52.3819C123.144 52.9999 122.364 53.3419 121.446 53.3419C119.814 53.3419 118.656 52.3039 118.524 50.7379H124.758V50.5939C124.758 50.5639 124.758 50.5279 124.764 50.4979C124.77 50.4619 124.77 50.4259 124.77 50.3959C124.776 48.1879 123.258 46.5919 121.164 46.5919ZM121.164 47.4919C122.574 47.4919 123.63 48.4759 123.786 49.8979H118.542C118.71 48.4759 119.772 47.4919 121.164 47.4919Z" fill="#D2AD95"/>
<path d="M131.946 46.5919C130.776 46.5919 129.756 47.1079 129.114 47.9899V46.6459H128.154V56.8939H129.138V52.8979C129.78 53.7679 130.776 54.2539 131.94 54.2539C134.106 54.2539 135.672 52.6399 135.672 50.4199C135.678 48.1999 134.112 46.5919 131.946 46.5919ZM131.904 47.5039C133.518 47.5039 134.694 48.7279 134.694 50.4199C134.694 52.1059 133.524 53.3359 131.904 53.3359C130.272 53.3359 129.126 52.1359 129.126 50.4199C129.126 48.7039 130.272 47.5039 131.904 47.5039Z" fill="#D2AD95"/>
<path d="M147 46.646H146.016V54.2H147V46.646Z" fill="#D2AD95"/>
<path d="M142.062 49.286L140.034 49.262V46.646H139.05V54.194L141.906 54.224C141.924 54.224 141.936 54.224 141.954 54.224C143.01 54.224 143.808 53.966 144.324 53.45C144.756 53.024 144.972 52.442 144.972 51.71C144.972 50.162 143.94 49.304 142.062 49.286ZM140.034 50.096L141.876 50.108C143.334 50.132 143.988 50.63 143.988 51.716C143.988 52.214 143.844 52.61 143.568 52.886C143.232 53.216 142.692 53.384 141.972 53.384C141.942 53.384 141.912 53.384 141.882 53.384L140.034 53.36V50.096Z" fill="#D2AD95"/>
<path d="M157.05 52.58V46.646H156.06V54.2H156.888L161.85 48.26V54.2H162.834V46.646H162.012L157.05 52.58Z" fill="#D2AD95"/>
<path d="M170.394 47.564H173.226V54.2H174.216V47.564H177.054V46.646H170.394V47.564Z" fill="#D2AD95"/>
<path d="M183.444 46.5919C182.274 46.5919 181.254 47.1079 180.612 47.9899V46.6459H179.652V56.8939H180.636V52.8979C181.278 53.7679 182.274 54.2539 183.438 54.2539C185.604 54.2539 187.17 52.6399 187.17 50.4199C187.182 48.1999 185.61 46.5919 183.444 46.5919ZM183.408 47.5039C185.022 47.5039 186.198 48.7279 186.198 50.4199C186.198 52.1059 185.028 53.3359 183.408 53.3359C181.776 53.3359 180.63 52.1359 180.63 50.4199C180.63 48.7039 181.77 47.5039 183.408 47.5039Z" fill="#D2AD95"/>
<path d="M193.434 46.5919C191.334 46.5919 189.81 48.2059 189.81 50.4259C189.81 52.6819 191.406 54.2599 193.698 54.2599C194.868 54.2599 195.906 53.8099 196.554 53.0239L196.632 52.9279L196.032 52.2499L195.924 52.3819C195.414 52.9999 194.634 53.3419 193.716 53.3419C192.084 53.3419 190.926 52.3039 190.794 50.7379H197.028V50.5939C197.028 50.5639 197.028 50.5279 197.034 50.4979C197.04 50.4619 197.04 50.4259 197.04 50.3959C197.04 48.1879 195.522 46.5919 193.434 46.5919ZM193.434 47.4919C194.844 47.4919 195.9 48.4759 196.056 49.8979H190.812C190.98 48.4759 192.036 47.4919 193.434 47.4919Z" fill="#D2AD95"/>
<path d="M206.028 49.958H201.396V46.646H200.412V54.2H201.396V50.858H206.028V54.2H207.018V46.646H206.028V49.958Z" fill="#D2AD95"/>
<path d="M217.074 46.646H211.686L211.584 49.178C211.476 51.23 211.29 53.234 210.342 53.294H209.766V56.006H210.726V54.2H217.308V56.006H218.25V53.294H217.08V46.646H217.074ZM216.09 47.564V53.294H211.698C212.298 52.532 212.448 50.906 212.514 49.232L212.592 47.564H216.09Z" fill="#D2AD95"/>
<path d="M229.356 46.646H228.372V54.2H229.356V46.646Z" fill="#D2AD95"/>
<path d="M224.412 49.286L222.384 49.262V46.646H221.4V54.194L224.256 54.224C224.274 54.224 224.286 54.224 224.304 54.224C225.36 54.224 226.158 53.966 226.674 53.45C227.106 53.024 227.322 52.442 227.322 51.71C227.328 50.162 226.29 49.304 224.412 49.286ZM222.39 50.096L224.232 50.108C225.69 50.132 226.344 50.63 226.344 51.716C226.344 52.214 226.2 52.61 225.924 52.886C225.588 53.216 225.048 53.384 224.328 53.384C224.298 53.384 224.268 53.384 224.238 53.384L222.39 53.36V50.096Z" fill="#D2AD95"/>
<defs>
<linearGradient id="paint0_linear_405_156" x1="2.66838" y1="63.5604" x2="20.695" y2="0.257837" gradientUnits="userSpaceOnUse">
<stop stop-color="#988676"/>
<stop offset="1" stop-color="#D2AD95"/>
</linearGradient>
<linearGradient id="paint1_linear_405_156" x1="15.1175" y1="65.8715" x2="32.9848" y2="3.12827" gradientUnits="userSpaceOnUse">
<stop stop-color="#988676"/>
<stop offset="1" stop-color="#D2AD95"/>
</linearGradient>
</defs>
</svg>
