<svg width="25" height="25" viewBox="0 0 25 25" fill="none" xmlns="http://www.w3.org/2000/svg">
<g id="Iconly/Bold/Search">
<g id="Search">
<path id="Vector" d="M19.5259 19.5205C20.009 19.0611 20.7835 19.0611 21.2667 19.5205L24.46 21.9883H24.5155C25.1615 22.6134 25.1615 23.627 24.5155 24.2522C23.8694 24.8774 22.822 24.8774 22.1759 24.2522L19.5259 21.3445L19.4253 21.2359C19.238 21.0089 19.1345 20.7259 19.1345 20.4325C19.1345 20.0903 19.2754 19.7621 19.5259 19.5205ZM10.722 0.786865C13.5657 0.786865 16.2929 1.87998 18.3037 3.82575C20.3145 5.77151 21.4441 8.41053 21.4441 11.1623C21.4441 16.8924 16.6437 21.5376 10.722 21.5376C4.80043 21.5376 0 16.8924 0 11.1623C0 5.43208 4.80043 0.786865 10.722 0.786865Z" fill="#565859"/>
</g>
</g>
</svg>
