<svg width="30" height="30" viewBox="0 0 30 30" fill="none" xmlns="http://www.w3.org/2000/svg">
<path d="M24.6004 2.40002H5.40039C3.74619 2.40002 2.40039 3.74582 2.40039 5.40002V24.6C2.40039 26.2542 3.74619 27.6 5.40039 27.6H24.6004C26.2546 27.6 27.6004 26.2542 27.6004 24.6V5.40002C27.6004 3.74582 26.2546 2.40002 24.6004 2.40002ZM22.204 13.3938C22.0678 13.4064 21.9298 13.4148 21.79 13.4148C20.2162 13.4148 18.8332 12.6054 18.0286 11.382C18.0286 14.5914 18.0286 18.243 18.0286 18.3042C18.0286 21.1296 15.7378 23.4204 12.9124 23.4204C10.087 23.4204 7.79619 21.1296 7.79619 18.3042C7.79619 15.4788 10.087 13.188 12.9124 13.188C13.0192 13.188 13.1236 13.1976 13.2286 13.2042V15.7254C13.1236 15.7128 13.0204 15.6936 12.9124 15.6936C11.47 15.6936 10.3012 16.8624 10.3012 18.3048C10.3012 19.7472 11.47 20.916 12.9124 20.916C14.3548 20.916 15.6286 19.7796 15.6286 18.3372C15.6286 18.2802 15.6538 6.58082 15.6538 6.58082H18.0634C18.2902 8.73542 20.0296 10.4358 22.204 10.5918V13.3938Z" fill="white"/>
</svg>
